mtllib cone_yellow.mtl
usemtl Yellow
o obj_0
v 0.000000 -10.000000 0.000000
v 1.305300 -9.914400 0.000000
v 0.000000 0.000000 30.000000
v 2.588200 -9.659300 0.000000
v 3.826800 -9.238800 0.000000
v 5.000000 -8.660300 0.000000
v 6.087600 -7.933500 0.000000
v 7.071100 -7.071100 0.000000
v 7.933500 -6.087600 0.000000
v 8.660300 -5.000000 0.000000
v 9.238800 -3.826800 0.000000
v 9.659300 -2.588200 0.000000
v 9.914400 -1.305300 0.000000
v 10.000000 0.000000 0.000000
v 9.914400 1.305300 0.000000
v 9.659300 2.588200 0.000000
v 9.238800 3.826800 0.000000
v 8.660300 5.000000 0.000000
v 7.933500 6.087600 0.000000
v 7.071100 7.071100 0.000000
v 6.087600 7.933500 0.000000
v 5.000000 8.660300 0.000000
v 3.826800 9.238800 0.000000
v 2.588200 9.659300 0.000000
v 1.305300 9.914400 0.000000
v 0.000000 10.000000 0.000000
v -1.305300 9.914400 0.000000
v -2.588200 9.659300 0.000000
v -3.826800 9.238800 0.000000
v -5.000000 8.660300 0.000000
v -6.087600 7.933500 0.000000
v -7.071100 7.071100 0.000000
v -7.933500 6.087600 0.000000
v -8.660300 5.000000 0.000000
v -9.238800 3.826800 0.000000
v -9.659300 2.588200 0.000000
v -9.914400 1.305300 0.000000
v -10.000000 0.000000 0.000000
v -9.914400 -1.305300 0.000000
v -9.659300 -2.588200 0.000000
v -9.238800 -3.826800 0.000000
v -8.660300 -5.000000 0.000000
v -7.933500 -6.087600 0.000000
v -7.071100 -7.071100 0.000000
v -6.087600 -7.933500 0.000000
v -5.000000 -8.660300 0.000000
v -3.826800 -9.238800 0.000000
v -2.588200 -9.659300 0.000000
v -1.305300 -9.914400 0.000000
v 0.000000 0.000000 0.000000
vn 0.000000 -0.810458 -0.585797
vn 0.105775 -0.803528 -0.585794
vn 0.000000 0.000000 1.000000
vn 0.209752 -0.782845 -0.585797
vn 0.310149 -0.748767 -0.585794
vn 0.405235 -0.701874 -0.585797
vn 0.493375 -0.642982 -0.585794
vn 0.573080 -0.573080 -0.585797
vn 0.642982 -0.493375 -0.585794
vn 0.701874 -0.405235 -0.585797
vn 0.748767 -0.310149 -0.585794
vn 0.782845 -0.209752 -0.585797
vn 0.803528 -0.105775 -0.585794
vn 0.810458 0.000000 -0.585797
vn 0.803528 0.105775 -0.585794
vn 0.782845 0.209752 -0.585797
vn 0.748767 0.310149 -0.585794
vn 0.701874 0.405235 -0.585797
vn 0.642982 0.493375 -0.585794
vn 0.573080 0.573080 -0.585797
vn 0.493375 0.642982 -0.585794
vn 0.405235 0.701874 -0.585797
vn 0.310149 0.748767 -0.585794
vn 0.209752 0.782845 -0.585797
vn 0.105775 0.803528 -0.585794
vn 0.000000 0.810458 -0.585797
vn -0.105775 0.803528 -0.585794
vn -0.209752 0.782845 -0.585797
vn -0.310149 0.748767 -0.585794
vn -0.405235 0.701874 -0.585797
vn -0.493375 0.642982 -0.585794
vn -0.573080 0.573080 -0.585797
vn -0.642982 0.493375 -0.585794
vn -0.701874 0.405235 -0.585797
vn -0.748767 0.310149 -0.585794
vn -0.782845 0.209752 -0.585797
vn -0.803528 0.105775 -0.585794
vn -0.810458 0.000000 -0.585797
vn -0.803528 -0.105775 -0.585794
vn -0.782845 -0.209752 -0.585797
vn -0.748767 -0.310149 -0.585794
vn -0.701874 -0.405235 -0.585797
vn -0.642982 -0.493375 -0.585794
vn -0.573080 -0.573080 -0.585797
vn -0.493375 -0.642982 -0.585794
vn -0.405235 -0.701874 -0.585797
vn -0.310149 -0.748767 -0.585794
vn -0.209752 -0.782845 -0.585797
vn -0.105775 -0.803528 -0.585794
vn 0.000000 0.000000 -1.000000
s 0
f 1//1 2//2 3//3
f 2//2 4//4 3//3
f 4//4 5//5 3//3
f 5//5 6//6 3//3
f 6//6 7//7 3//3
f 7//7 8//8 3//3
f 8//8 9//9 3//3
f 9//9 10//10 3//3
f 10//10 11//11 3//3
f 11//11 12//12 3//3
f 12//12 13//13 3//3
f 13//13 14//14 3//3
f 14//14 15//15 3//3
f 15//15 16//16 3//3
f 16//16 17//17 3//3
f 17//17 18//18 3//3
f 18//18 19//19 3//3
f 19//19 20//20 3//3
f 20//20 21//21 3//3
f 21//21 22//22 3//3
f 22//22 23//23 3//3
f 23//23 24//24 3//3
f 24//24 25//25 3//3
f 25//25 26//26 3//3
f 26//26 27//27 3//3
f 27//27 28//28 3//3
f 28//28 29//29 3//3
f 29//29 30//30 3//3
f 30//30 31//31 3//3
f 31//31 32//32 3//3
f 32//32 33//33 3//3
f 33//33 34//34 3//3
f 34//34 35//35 3//3
f 35//35 36//36 3//3
f 36//36 37//37 3//3
f 37//37 38//38 3//3
f 38//38 39//39 3//3
f 39//39 40//40 3//3
f 40//40 41//41 3//3
f 41//41 42//42 3//3
f 42//42 43//43 3//3
f 43//43 44//44 3//3
f 44//44 45//45 3//3
f 45//45 46//46 3//3
f 46//46 47//47 3//3
f 47//47 48//48 3//3
f 48//48 49//49 3//3
f 49//49 1//1 3//3
f 2//2 1//1 50//50
f 4//4 2//2 50//50
f 5//5 4//4 50//50
f 6//6 5//5 50//50
f 7//7 6//6 50//50
f 8//8 7//7 50//50
f 9//9 8//8 50//50
f 10//10 9//9 50//50
f 11//11 10//10 50//50
f 12//12 11//11 50//50
f 13//13 12//12 50//50
f 14//14 13//13 50//50
f 15//15 14//14 50//50
f 16//16 15//15 50//50
f 17//17 16//16 50//50
f 18//18 17//17 50//50
f 19//19 18//18 50//50
f 20//20 19//19 50//50
f 21//21 20//20 50//50
f 22//22 21//21 50//50
f 23//23 22//22 50//50
f 24//24 23//23 50//50
f 25//25 24//24 50//50
f 26//26 25//25 50//50
f 27//27 26//26 50//50
f 28//28 27//27 50//50
f 29//29 28//28 50//50
f 30//30 29//29 50//50
f 31//31 30//30 50//50
f 32//32 31//31 50//50
f 33//33 32//32 50//50
f 34//34 33//33 50//50
f 35//35 34//34 50//50
f 36//36 35//35 50//50
f 37//37 36//36 50//50
f 38//38 37//37 50//50
f 39//39 38//38 50//50
f 40//40 39//39 50//50
f 41//41 40//40 50//50
f 42//42 41//41 50//50
f 43//43 42//42 50//50
f 44//44 43//43 50//50
f 45//45 44//44 50//50
f 46//46 45//45 50//50
f 47//47 46//46 50//50
f 48//48 47//47 50//50
f 49//49 48//48 50//50
f 1//1 49//49 50//50
